<svg width="230" height="119" viewBox="0 0 230 119" fill="none" xmlns="http://www.w3.org/2000/svg">
<path d="M35.136 14.176C41.92 14.176 47.4027 16.2027 51.584 20.256L45.76 27.104C42.7733 24.7147 39.5947 23.52 36.224 23.52C34.6453 23.52 33.4507 23.7973 32.64 24.352C31.8293 24.9067 31.424 25.696 31.424 26.72C31.424 27.488 31.6373 28.128 32.064 28.64C32.5333 29.1093 33.28 29.5573 34.304 29.984C35.3707 30.4107 37.0773 31.008 39.424 31.776C44.1173 33.2693 47.488 35.1467 49.536 37.408C51.6267 39.6693 52.672 42.7627 52.672 46.688C52.672 49.5467 51.904 52.0853 50.368 54.304C48.8747 56.48 46.72 58.1867 43.904 59.424C41.088 60.6613 37.76 61.28 33.92 61.28C29.9947 61.28 26.5387 60.6613 23.552 59.424C20.5653 58.1867 18.048 56.5653 16 54.56L22.464 47.456C25.8347 50.3573 29.4827 51.808 33.408 51.808C35.2427 51.808 36.6293 51.4453 37.568 50.72C38.5067 49.952 38.976 48.9707 38.976 47.776C38.976 46.88 38.7627 46.1333 38.336 45.536C37.952 44.9387 37.248 44.384 36.224 43.872C35.2 43.36 33.7067 42.8053 31.744 42.208C26.5813 40.5867 22.976 38.6453 20.928 36.384C18.88 34.08 17.856 31.2213 17.856 27.808C17.856 25.0347 18.6027 22.624 20.096 20.576C21.5893 18.528 23.6373 16.9493 26.24 15.84C28.8853 14.7307 31.8507 14.176 35.136 14.176ZM88.505 42.464C88.505 43.5307 88.4197 44.8747 88.249 46.496H67.513C67.8543 48.8 68.5583 50.3573 69.625 51.168C70.7343 51.936 72.313 52.32 74.361 52.32C75.5557 52.32 76.7717 52.0853 78.009 51.616C79.2463 51.104 80.6117 50.336 82.105 49.312L87.225 56.224C83.0863 59.5947 78.393 61.28 73.145 61.28C67.0863 61.28 62.4997 59.616 59.385 56.288C56.2703 52.9173 54.713 48.48 54.713 42.976C54.713 39.5627 55.353 36.4693 56.633 33.696C57.9557 30.88 59.897 28.6613 62.457 27.04C65.017 25.376 68.1103 24.544 71.737 24.544C75.1077 24.544 78.0517 25.248 80.569 26.656C83.0863 28.064 85.0277 30.112 86.393 32.8C87.801 35.488 88.505 38.7093 88.505 42.464ZM76.025 38.88C75.9823 36.8747 75.6623 35.3173 75.065 34.208C74.5103 33.0987 73.4863 32.544 71.993 32.544C70.585 32.544 69.5183 33.0347 68.793 34.016C68.1103 34.9973 67.6623 36.768 67.449 39.328H76.025V38.88ZM108.13 24.544C112.994 24.544 117.133 26.0587 120.546 29.088L115.298 36.448C113.335 34.8693 111.33 34.08 109.282 34.08C107.319 34.08 105.869 34.7627 104.93 36.128C103.991 37.4933 103.522 39.84 103.522 43.168C103.522 46.368 103.991 48.5653 104.93 49.76C105.911 50.912 107.319 51.488 109.154 51.488C110.135 51.488 111.053 51.3387 111.906 51.04C112.759 50.6987 113.826 50.1227 115.106 49.312L120.546 57.056C117.09 59.872 113.058 61.28 108.45 61.28C104.738 61.28 101.517 60.5333 98.786 59.04C96.0553 57.504 93.9647 55.3707 92.514 52.64C91.0633 49.8667 90.338 46.7093 90.338 43.168C90.338 39.584 91.0633 36.384 92.514 33.568C94.0073 30.752 96.098 28.5547 98.786 26.976C101.474 25.3547 104.589 24.544 108.13 24.544ZM143.299 24.736C144.408 24.736 145.56 24.928 146.755 25.312L144.771 37.536C143.619 37.1947 142.574 37.024 141.635 37.024C139.758 37.024 138.35 37.6427 137.411 38.88C136.515 40.1173 135.79 41.9733 135.235 44.448V60H122.563V25.824H133.635L134.659 32.224C135.384 29.9627 136.536 28.1493 138.115 26.784C139.694 25.4187 141.422 24.736 143.299 24.736ZM179.068 42.464C179.068 43.5307 178.982 44.8747 178.812 46.496H158.076C158.417 48.8 159.121 50.3573 160.188 51.168C161.297 51.936 162.876 52.32 164.924 52.32C166.118 52.32 167.334 52.0853 168.572 51.616C169.809 51.104 171.174 50.336 172.668 49.312L177.788 56.224C173.649 59.5947 168.956 61.28 163.708 61.28C157.649 61.28 153.062 59.616 149.948 56.288C146.833 52.9173 145.276 48.48 145.276 42.976C145.276 39.5627 145.916 36.4693 147.196 33.696C148.518 30.88 150.46 28.6613 153.02 27.04C155.58 25.376 158.673 24.544 162.3 24.544C165.67 24.544 168.614 25.248 171.132 26.656C173.649 28.064 175.59 30.112 176.956 32.8C178.364 35.488 179.068 38.7093 179.068 42.464ZM166.588 38.88C166.545 36.8747 166.225 35.3173 165.628 34.208C165.073 33.0987 164.049 32.544 162.556 32.544C161.148 32.544 160.081 33.0347 159.356 34.016C158.673 34.9973 158.225 36.768 158.012 39.328H166.588V38.88ZM206.437 58.336C205.114 59.2747 203.493 60 201.573 60.512C199.695 61.024 197.903 61.28 196.197 61.28C191.973 61.2373 188.837 60.064 186.789 57.76C184.783 55.4133 183.781 51.9573 183.781 47.392V34.4H179.684V25.824H183.781V18.656L196.453 17.184V25.824H204.133L202.853 34.4H196.453V47.264C196.453 48.7573 196.687 49.824 197.157 50.464C197.626 51.0613 198.287 51.36 199.141 51.36C200.207 51.36 201.274 51.0613 202.341 50.464L206.437 58.336Z" fill="#3DBE00"/>
<path d="M26.8 68.96C28.64 68.96 30.2133 69.2267 31.52 69.76C32.8267 70.2667 34.0933 71.0667 35.32 72.16L33.24 74.48C32.2 73.6533 31.1733 73.0533 30.16 72.68C29.1733 72.28 28.1067 72.08 26.96 72.08C25.52 72.08 24.3333 72.4133 23.4 73.08C22.4667 73.7467 22 74.72 22 76C22 76.8 22.16 77.48 22.48 78.04C22.8 78.5733 23.3867 79.0667 24.24 79.52C25.12 79.9733 26.3867 80.4533 28.04 80.96C29.7733 81.4933 31.2133 82.0667 32.36 82.68C33.5067 83.2933 34.4267 84.1467 35.12 85.24C35.84 86.3067 36.2 87.6667 36.2 89.32C36.2 90.92 35.8 92.3333 35 93.56C34.2267 94.7867 33.0933 95.7467 31.6 96.44C30.1333 97.1333 28.3867 97.48 26.36 97.48C22.5467 97.48 19.4267 96.2933 17 93.92L19.08 91.6C20.2 92.5067 21.3333 93.2 22.48 93.68C23.6267 94.1333 24.9067 94.36 26.32 94.36C28.0267 94.36 29.44 93.9467 30.56 93.12C31.68 92.2667 32.24 91.04 32.24 89.44C32.24 88.5333 32.0667 87.7867 31.72 87.2C31.3733 86.5867 30.7733 86.04 29.92 85.56C29.0933 85.08 27.88 84.6 26.28 84.12C23.4533 83.2667 21.3867 82.24 20.08 81.04C18.7733 79.84 18.12 78.2133 18.12 76.16C18.12 74.7733 18.48 73.5333 19.2 72.44C19.9467 71.3467 20.9733 70.4933 22.28 69.88C23.6133 69.2667 25.12 68.96 26.8 68.96ZM55.7969 92.08C55.7969 92.9333 55.9435 93.5733 56.2369 94C56.5302 94.4 56.9702 94.7067 57.5569 94.92L56.7169 97.48C55.6235 97.3467 54.7435 97.04 54.0769 96.56C53.4102 96.08 52.9169 95.3333 52.5969 94.32C51.1835 96.4267 49.0902 97.48 46.3169 97.48C44.2369 97.48 42.5969 96.8933 41.3969 95.72C40.1969 94.5467 39.5969 93.0133 39.5969 91.12C39.5969 88.88 40.3969 87.16 41.9969 85.96C43.6235 84.76 45.9169 84.16 48.8769 84.16H52.1169V82.6C52.1169 81.1067 51.7569 80.04 51.0369 79.4C50.3169 78.76 49.2102 78.44 47.7169 78.44C46.1702 78.44 44.2769 78.8133 42.0369 79.56L41.1169 76.88C43.7302 75.92 46.1569 75.44 48.3969 75.44C50.8769 75.44 52.7302 76.0533 53.9569 77.28C55.1835 78.48 55.7969 80.2 55.7969 82.44V92.08ZM47.1569 94.72C49.2635 94.72 50.9169 93.6267 52.1169 91.44V86.6H49.3569C45.4635 86.6 43.5169 88.04 43.5169 90.92C43.5169 92.1733 43.8235 93.12 44.4369 93.76C45.0502 94.4 45.9569 94.72 47.1569 94.72ZM73.2747 75.44C75.1947 75.44 76.688 76.0133 77.7547 77.16C78.848 78.3067 79.3947 79.88 79.3947 81.88V97H75.7147V82.4C75.7147 80.9067 75.4347 79.8533 74.8747 79.24C74.3147 78.6267 73.488 78.32 72.3947 78.32C71.2747 78.32 70.288 78.64 69.4347 79.28C68.5814 79.92 67.7814 80.84 67.0347 82.04V97H63.3547V75.92H66.5147L66.8347 79.04C67.5814 77.92 68.5014 77.04 69.5947 76.4C70.7147 75.76 71.9414 75.44 73.2747 75.44ZM97.4322 96.04C96.0455 97 94.4722 97.48 92.7122 97.48C90.9255 97.48 89.5255 96.9733 88.5122 95.96C87.5255 94.92 87.0322 93.4267 87.0322 91.48V78.76H83.3522V75.92H87.0322V71.16L90.7122 70.72V75.92H95.7122L95.3122 78.76H90.7122V91.32C90.7122 92.4133 90.8989 93.2133 91.2722 93.72C91.6722 94.2 92.3255 94.44 93.2322 94.44C94.0589 94.44 94.9922 94.16 96.0322 93.6L97.4322 96.04ZM115.172 92.08C115.172 92.9333 115.319 93.5733 115.612 94C115.905 94.4 116.345 94.7067 116.932 94.92L116.092 97.48C114.999 97.3467 114.119 97.04 113.452 96.56C112.785 96.08 112.292 95.3333 111.972 94.32C110.559 96.4267 108.465 97.48 105.692 97.48C103.612 97.48 101.972 96.8933 100.772 95.72C99.5719 94.5467 98.9719 93.0133 98.9719 91.12C98.9719 88.88 99.7719 87.16 101.372 85.96C102.999 84.76 105.292 84.16 108.252 84.16H111.492V82.6C111.492 81.1067 111.132 80.04 110.412 79.4C109.692 78.76 108.585 78.44 107.092 78.44C105.545 78.44 103.652 78.8133 101.412 79.56L100.492 76.88C103.105 75.92 105.532 75.44 107.772 75.44C110.252 75.44 112.105 76.0533 113.332 77.28C114.559 78.48 115.172 80.2 115.172 82.44V92.08ZM106.532 94.72C108.639 94.72 110.292 93.6267 111.492 91.44V86.6H108.732C104.839 86.6 102.892 88.04 102.892 90.92C102.892 92.1733 103.199 93.12 103.812 93.76C104.425 94.4 105.332 94.72 106.532 94.72Z" fill="#F25F5F"/>
<path d="M162.545 75V72.9545C162.545 72.3333 162.655 71.6742 162.875 70.9773C163.102 70.2727 163.428 69.5947 163.852 68.9432C164.284 68.2841 164.803 67.7121 165.409 67.2273L166.864 68.4091C166.386 69.0909 165.97 69.803 165.614 70.5455C165.265 71.2803 165.091 72.0682 165.091 72.9091V75H162.545ZM169.784 91V88.9545L177.466 80.5455C178.367 79.5606 179.11 78.7045 179.693 77.9773C180.277 77.2424 180.708 76.553 180.989 75.9091C181.277 75.2576 181.42 74.5758 181.42 73.8636C181.42 73.0455 181.223 72.3371 180.83 71.7386C180.443 71.1402 179.913 70.678 179.239 70.3523C178.564 70.0265 177.807 69.8636 176.966 69.8636C176.072 69.8636 175.292 70.0492 174.625 70.4205C173.966 70.7841 173.455 71.2955 173.091 71.9545C172.735 72.6136 172.557 73.3864 172.557 74.2727H169.875C169.875 72.9091 170.189 71.7121 170.818 70.6818C171.447 69.6515 172.303 68.8485 173.386 68.2727C174.477 67.697 175.701 67.4091 177.057 67.4091C178.42 67.4091 179.629 67.697 180.682 68.2727C181.735 68.8485 182.561 69.625 183.159 70.6023C183.758 71.5795 184.057 72.6667 184.057 73.8636C184.057 74.7197 183.902 75.5568 183.591 76.375C183.288 77.1856 182.758 78.0909 182 79.0909C181.25 80.0833 180.208 81.2955 178.875 82.7273L173.648 88.3182V88.5H184.466V91H169.784ZM188.114 86.2273V83.9091L198.341 67.7273H200.023V71.3182H198.886L191.159 83.5455V83.7273H204.932V86.2273H188.114ZM199.068 91V85.5227V84.4432V67.7273H201.75V91H199.068Z" fill="black" fill-opacity="0.5"/>
</svg>
